<svg width="250" height="225" viewBox="0 0 250 225" fill="none" xmlns="http://www.w3.org/2000/svg">
<path d="M167.258 175.539L166.826 175.038C187.274 153.254 195.805 119.928 195.888 119.594L196.547 119.68C196.463 120.016 187.877 153.574 167.258 175.539Z" fill="#223242"/>
<path d="M195.549 120.381C195.549 120.381 196.744 99.1774 202.378 84.773C204.322 79.8034 206.599 75.6081 208.683 72.2825C208.683 72.2825 209.653 98.7594 195.549 120.381Z" fill="#80BA91"/>
<path d="M208.683 72.2825C208.683 72.2825 203.367 82.2576 203.161 94.8801C202.956 107.503 204.738 116.823 188.889 134.397C188.889 134.397 197.155 87.8336 208.683 72.2825Z" fill="#223242"/>
<path d="M177.434 165.977C175.49 165.219 178.274 152.989 183.959 141.984C190.461 129.399 195.345 128.895 202.116 115.969C208.277 104.209 205.66 101.907 210.926 93.653C220.895 78.0275 239.097 72.4534 239.574 74.3246C239.859 75.442 233.594 78.3028 229.251 86.4367C224.271 95.7636 228.027 100.394 224.785 109.64C221.067 120.242 213.713 121.038 199.226 137.332C184.902 153.442 177.434 165.977 177.434 165.977Z" fill="#80BA91"/>
<path d="M177.434 165.977C177.434 165.977 199.219 146.609 220.572 116.975C220.572 116.975 194.286 134.161 177.434 165.977Z" fill="#223242"/>
<path d="M172.917 176.603C174.273 169.537 178.269 162.166 178.309 162.092C183.995 147.648 191.118 135.857 199.457 127.1C200.237 126.28 201.039 125.474 201.852 124.657C205.692 120.799 209.663 116.811 212.625 110.151C214.229 106.546 214.743 103.932 215.24 101.404C215.745 98.8325 216.222 96.4035 217.761 93.157C220.769 86.8164 226.134 81.1864 233.708 76.4238L233.968 77.0661C226.539 81.737 221.287 87.238 218.357 93.4155C216.868 96.5558 216.402 98.9303 215.907 101.444C215.401 104.022 214.877 106.688 213.231 110.388C210.197 117.208 206.165 121.259 202.265 125.176C201.457 125.988 200.659 126.79 199.883 127.605C191.629 136.274 184.571 147.962 178.905 162.345C178.841 162.471 174.914 169.717 173.586 176.638L172.917 176.603Z" fill="#223242"/>
<path d="M174.541 171.4C174.541 171.4 205.083 148.153 227.861 135.887L208.197 137.456L186.276 154.872L174.541 171.4Z" fill="#223242"/>
<path d="M174.541 171.4C179.736 160.668 185.193 154.269 189.187 150.423C194.963 144.859 198.239 144.093 205.928 136.469C212.784 129.672 213.749 126.742 217.243 123.552C222.697 118.572 232.102 114.975 249.362 122.056C249.362 122.056 246.674 121.095 243.608 122.599C240.54 124.103 231.2 136.739 221.35 138.465C211.499 140.19 201.706 141.456 190.757 152.651C179.808 163.845 174.541 171.4 174.541 171.4Z" fill="#80BA91"/>
<path d="M171.737 177.037L171.172 176.718L174.258 171.241C183.717 154.456 196.071 146.469 208.019 138.745C212.688 135.726 217.099 132.875 221.169 129.586C235.501 118.008 243.217 120.728 243.539 120.849L243.227 121.57C243.151 121.542 235.486 118.881 221.511 130.172C217.406 133.488 212.977 136.351 208.289 139.382C196.431 147.048 184.17 154.975 174.824 171.56L171.737 177.037Z" fill="#223242"/>
<path d="M83.5647 182.694L84.0885 182.291C68.4453 156.839 66.8007 122.478 66.7863 122.134L66.1239 122.085C66.1383 122.431 67.7913 157.029 83.5647 182.694Z" fill="#223242"/>
<path d="M66.9603 122.973C66.9603 122.973 70.0593 101.963 67.4415 86.7204C66.5379 81.4612 65.1519 76.894 63.7803 73.2169C63.7803 73.2169 57.4989 98.9561 66.9603 122.973Z" fill="#80BA91"/>
<path d="M63.7809 73.2163C63.7809 73.2163 66.9789 84.0569 64.6383 96.4623C62.2977 108.868 58.6749 117.639 70.6611 138.042C70.6611 138.042 71.9409 90.7682 63.7809 73.2163Z" fill="#223242"/>
<path d="M75.5223 171.28C77.5791 170.929 77.3157 158.389 73.9623 146.466C70.1277 132.83 65.4459 131.354 61.4157 117.33C57.7491 104.572 60.7767 102.843 57.2811 93.6986C50.6631 76.3872 33.9555 67.2649 33.1113 69.0018C32.6073 70.0388 38.1675 74.1015 40.7841 82.9426C43.7835 93.0803 39.1719 96.8599 40.4865 106.569C41.9937 117.703 49.0365 119.963 59.9463 138.838C70.7319 157.499 75.5223 171.28 75.5223 171.28Z" fill="#80BA91"/>
<path d="M75.5224 171.28C75.5224 171.28 58.0834 147.926 43.135 114.601C43.135 114.601 65.422 136.725 75.5224 171.28Z" fill="#223242"/>
<path d="M77.8071 182.598C77.9019 175.404 75.4725 167.379 75.4479 167.3C72.7869 152.008 68.1837 139.025 61.7793 128.769C61.1805 127.809 60.5565 126.857 59.9247 125.894C56.9397 121.342 53.8539 116.636 52.2933 109.517C51.4485 105.663 51.4719 102.999 51.4941 100.423C51.5175 97.8028 51.5385 95.327 50.6847 91.837C49.0161 85.0207 44.8947 78.427 38.4345 72.2375L38.0499 72.8144C44.3859 78.8846 48.4227 85.3296 50.0487 91.9701C50.8749 95.3462 50.8539 97.7656 50.8317 100.327C50.8089 102.954 50.7849 105.67 51.6519 109.627C53.2509 116.918 56.3847 121.697 59.4153 126.319C60.0435 127.278 60.6639 128.224 61.2597 129.177C67.5987 139.33 72.1587 152.199 74.8125 167.427C74.8503 167.564 77.2371 175.452 77.1447 182.498L77.8071 182.598Z" fill="#223242"/>
<path d="M77.2642 177.175C77.2642 177.175 52.0282 148.259 32.1868 131.661L51.1324 137.153L69.0976 158.624L77.2642 177.175Z" fill="#223242"/>
<path d="M77.2642 177.175C74.3362 165.617 70.279 158.252 67.1422 153.68C62.605 147.068 59.5504 145.659 53.5534 136.644C48.2062 128.606 47.8516 125.542 45.0712 121.714C40.732 115.739 32.2432 110.323 13.9114 113.786C13.9114 113.786 16.7368 113.386 19.4386 115.476C22.1398 117.566 28.7446 131.823 38.0458 135.495C47.3476 139.167 56.6854 142.378 65.1562 155.546C73.627 168.715 77.2642 177.175 77.2642 177.175Z" fill="#80BA91"/>
<path d="M78.8757 183.26L79.4937 183.062L77.5737 177.076C71.6889 158.732 61.1955 148.422 51.0477 138.451C47.0817 134.555 43.3359 130.875 40.0107 126.835C28.3041 112.61 20.1981 113.721 19.8591 113.776L20.0199 114.544C20.0997 114.532 28.1439 113.468 39.5589 127.339C42.9123 131.414 46.6737 135.11 50.6553 139.022C60.7269 148.917 71.1405 159.148 76.9551 177.274L78.8757 183.26Z" fill="#223242"/>
<path opacity="0.52" d="M128.703 213.836C159.684 213.836 184.799 212.314 184.799 210.437C184.799 208.559 159.684 207.037 128.703 207.037C97.7225 207.037 72.6075 208.559 72.6075 210.437C72.6075 212.314 97.7225 213.836 128.703 213.836Z" fill="#BBC5D4"/>
<path d="M193.899 42.2766C188.517 31.5631 179.163 26.8514 170.083 24.4332C161.846 22.2392 153.6 24.3834 146.301 29.8244C141.3 33.5519 135.729 35.4429 130.147 35.5065C129.665 35.5011 127.741 35.5011 127.259 35.5065C121.677 35.4429 116.106 33.5519 111.105 29.8244C103.807 24.3834 95.5611 22.2392 87.3231 24.4332C78.2433 26.8514 68.8893 31.5631 63.5073 42.2766C54.0333 61.1377 55.9671 89.0445 65.3775 107.162C67.3581 110.975 67.6113 115.933 67.3743 120.571C67.0317 127.276 66.9357 133.566 67.1373 140.276C67.3857 148.557 67.9719 156.847 69.1959 164.978C71.2947 178.924 75.4251 192.879 83.4729 202.569C85.4799 204.985 87.6885 207.092 90.0423 208.855C96.6381 213.794 103.899 209.178 106.93 200.351C108.848 194.763 109.173 188.468 109.581 182.339C110.478 168.823 113.984 156.204 125.362 154.593C125.996 154.504 126.629 154.47 127.259 154.485C127.738 154.473 128.22 154.519 128.703 154.567C129.185 154.519 129.667 154.473 130.146 154.485C130.776 154.47 131.409 154.504 132.043 154.593C143.421 156.204 146.927 168.823 147.824 182.339C148.231 188.468 148.556 194.763 150.474 200.351C153.505 209.179 160.766 213.794 167.362 208.855C169.716 207.092 171.925 204.986 173.931 202.569C181.979 192.878 186.11 178.924 188.208 164.978C189.432 156.847 190.019 148.557 190.267 140.276C190.469 133.566 190.373 127.277 190.03 120.571C189.793 115.933 190.046 110.975 192.027 107.162C201.439 89.0445 203.373 61.1377 193.899 42.2766Z" fill="white"/>
<path d="M182.231 180.728C173.098 185.666 163.045 181.051 158.849 172.223C156.193 166.635 155.743 160.34 155.179 154.212C153.936 140.696 149.082 128.077 133.329 126.466C132.452 126.376 131.576 126.342 130.703 126.358C130.039 126.346 129.372 126.392 128.704 126.44C128.037 126.391 127.369 126.346 126.705 126.358C125.833 126.342 124.956 126.376 124.079 126.466C108.326 128.076 103.472 140.696 102.229 154.212C101.666 160.34 101.215 166.636 98.5593 172.223C94.3629 181.052 84.3099 185.666 75.1774 180.728C74.1315 180.162 73.1145 179.549 72.1125 178.913C74.5539 187.837 78.1413 196.147 83.4747 202.569C85.4817 204.985 87.6904 207.092 90.0442 208.855C96.64 213.794 103.901 209.178 106.932 200.35C108.85 194.763 109.175 188.467 109.582 182.339C110.48 168.823 113.986 156.204 125.363 154.593C125.996 154.504 126.63 154.47 127.26 154.485C127.739 154.473 128.222 154.519 128.703 154.567C129.185 154.519 129.668 154.473 130.148 154.485C130.778 154.47 131.411 154.504 132.044 154.593C143.422 156.204 146.928 168.823 147.825 182.339C148.232 188.467 148.557 194.763 150.476 200.35C153.506 209.178 160.767 213.794 167.363 208.855C169.717 207.092 171.926 204.985 173.933 202.569C179.267 196.146 182.853 187.837 185.295 178.913C184.293 179.549 183.276 180.162 182.231 180.728Z" fill="#D9E7FC"/>
<path d="M128.703 52.2692C144.631 52.2692 158.153 40.2872 163.036 23.6295C157.208 23.7747 151.511 25.9392 146.301 29.8238C141.3 33.5519 135.729 35.4423 130.147 35.5059C129.665 35.5005 127.741 35.5005 127.259 35.5059C121.677 35.4423 116.106 33.5513 111.105 29.8238C105.895 25.9392 100.199 23.7741 94.3701 23.6295C99.2547 40.2872 112.776 52.2692 128.703 52.2692Z" fill="#D9E7FC"/>
<path opacity="0.52" d="M45.4725 219.712C45.4725 221.043 36.9885 222.123 26.5227 222.123C16.0575 222.123 7.57349 221.043 7.57349 219.712C7.57349 218.38 16.0575 217.301 26.5227 217.301C36.9885 217.302 45.4725 218.38 45.4725 219.712Z" fill="#BBC5D4"/>
<path d="M16.1116 207.626L9.66699 207.717C10.2028 210.144 10.78 212.628 11.407 215.172L15.8458 215.109L16.1116 207.626Z" fill="#FCC6BA"/>
<path d="M31.612 206.538L24.7924 206.634L27.2632 213.774L32.3446 211.981C32.3446 211.981 32.0734 209.924 31.612 206.538Z" fill="#FCC6BA"/>
<path d="M17.4982 214.323L11.0944 214.304C11.0944 214.304 9.6676 215.538 9.0448 221.002L22.4308 221.043C22.4308 221.043 22.8046 217.814 19.291 216.561L17.4982 214.323Z" fill="#223242"/>
<path d="M26.6589 212.644C26.6589 212.644 26.2617 216.895 26.8233 218.625L41.5761 218.773C41.5761 218.773 42.3855 214.998 32.9319 212.663L26.6589 212.644Z" fill="#223242"/>
<path d="M12.7468 214.512L11.8966 212.584C11.8966 212.584 14.536 211.381 17.686 212.293L17.6788 214.628L12.7468 214.512Z" fill="#223242"/>
<path d="M30.2415 212.725L29.6853 210.82C29.6853 210.82 31.1295 209.553 32.9457 210.388L33.0339 212.722L30.2415 212.725Z" fill="#223242"/>
<path d="M17.2804 83.6419L23.4928 82.4939L19.87 65.9058L14.1724 67.1497L17.2804 83.6419Z" fill="#FCC6BA"/>
<path d="M19.5903 57.6412C19.5903 57.6412 28.7511 55.4664 28.1151 60.61C27.4785 65.7535 25.7739 67.3758 25.7739 67.3758L19.5903 57.6412Z" fill="#223242"/>
<path d="M27.0802 64.2097C28.0834 68.8026 25.2496 73.3218 20.7502 74.3036C16.2514 75.2854 11.791 72.358 10.7878 67.7651C9.7846 63.1721 12.6184 58.6529 17.1178 57.6711C21.6166 56.6893 26.077 59.6168 27.0802 64.2097Z" fill="#FCC6BA"/>
<path d="M26.7244 63.0084C26.7244 63.0084 29.7154 72.4684 25.699 77.5339C25.492 77.7948 25.1812 77.9466 24.8506 77.9532C22.8448 77.9915 13.9768 77.0199 11.446 69.1787L26.7244 63.0084Z" fill="#FCC6BA"/>
<path d="M20.1766 70.437C20.1766 70.437 27.1246 67.446 27.8734 69.2225C27.8734 69.2225 28.4674 78.0917 24.9604 78.0971C18.9118 78.1067 20.1766 70.437 20.1766 70.437Z" fill="white"/>
<path d="M17.908 67.6043C17.908 67.6043 19.5928 70.3224 21.7972 71.3732" stroke="white" stroke-width="0.75" stroke-miterlimit="10" stroke-linecap="round"/>
<path d="M16.7667 71.6833C16.7667 71.6833 18.2961 75.1829 22.4181 76.6967" stroke="white" stroke-width="0.75" stroke-miterlimit="10" stroke-linecap="round"/>
<path d="M25.2747 60.5128C25.2747 60.5128 22.4031 67.512 17.8287 68.0763C17.8287 68.0763 15.6363 66.313 14.9685 67.9294C14.3001 69.5451 15.3873 71.5867 16.7667 71.6839C16.7667 71.6839 15.5901 74.6731 15.9315 76.4855C15.9315 76.4855 12.7083 75.2644 11.4453 73.8874C9.79472 72.0869 8.79812 67.6187 9.52532 63.4444C10.3623 58.6385 21.4023 52.7351 25.2747 60.5128Z" fill="#223242"/>
<path d="M13.1427 60.9794C12.9621 59.0356 10.9341 57.0078 8.57551 57.0918C6.79891 57.1547 5.40811 58.3956 4.77451 59.6929C3.64891 61.9972 4.62151 65.0721 6.45751 65.922C9.00631 67.1017 13.4307 64.0873 13.1427 60.9794Z" fill="#223242"/>
<path d="M25.1787 60.2813C25.1787 60.2813 26.2473 62.9502 23.1777 65.7349" stroke="#223242" stroke-width="0.75" stroke-miterlimit="10" stroke-linecap="round"/>
<path d="M12.5253 60.5728C12.5253 60.5728 13.2855 56.6629 8.87854 56.3109" stroke="#223242" stroke-width="0.75" stroke-miterlimit="10" stroke-linecap="round"/>
<path d="M22.4745 77.7372C22.4745 77.7372 19.3323 77.0001 18.2169 76.3062C18.2169 76.3062 21.4089 78.4533 22.6761 78.6968L22.4745 77.7372Z" fill="#223242"/>
<path d="M15.5409 72.1637C15.7389 72.6411 16.2873 72.8678 16.7649 72.6693C17.2425 72.4714 17.4693 71.9232 17.2707 71.4458C17.0727 70.9684 16.5243 70.7423 16.0467 70.9402C15.5691 71.1387 15.3429 71.6863 15.5409 72.1637Z" fill="white"/>
<path d="M38.0277 120.624C27.9741 120.624 11.5827 121.386 11.5827 121.386C11.1681 123.333 11.8251 122.808 10.7901 124.953C9.21871 128.21 8.72671 131.882 9.44611 135.426C9.70471 136.698 9.98011 138.048 10.2435 139.322C10.2435 139.322 10.3863 146.805 10.2435 151.545C10.1007 156.285 8.5401 164.794 7.5009 169.239C6.4617 173.684 5.87251 177.632 6.11491 182.906C6.35731 188.18 9.5919 208.788 9.5919 208.788C9.5919 208.788 11.8749 211.642 16.6275 208.788C16.6275 208.788 17.0397 179.255 17.9847 175.975C18.9297 172.695 19.0065 174.684 21.6141 169.445C22.7919 167.079 25.0671 158.273 27.2073 149.329C27.2583 151.529 27.2487 153.511 27.1413 155.003C26.6157 162.291 23.7987 172.067 23.5179 175.266C23.2371 178.465 24.3063 206.913 24.3063 206.913C24.3063 206.913 26.9637 210.213 32.2065 207.532C32.2065 207.532 33.8943 180.8 33.7845 177.806C33.6747 174.812 39.5085 165.612 40.9455 157.792C42.3837 149.972 41.1201 127.861 38.0277 120.624Z" fill="#223242"/>
<path d="M15.3088 121.225C15.3088 121.225 13.036 126.547 14.1724 133.224C15.3088 139.901 13.1692 161.743 10.549 168.397C7.9288 175.05 8.002 185.213 11.5828 209.423" stroke="#6588FC" stroke-width="0.75" stroke-miterlimit="10" stroke-linecap="round" stroke-linejoin="round"/>
<path d="M27.2086 149.329L30.9754 140.913" stroke="#223242" stroke-width="0.75" stroke-miterlimit="10" stroke-linecap="round" stroke-linejoin="round"/>
<path d="M26.3884 208.261C26.3884 208.261 25.3126 178.955 26.3884 175.484C27.4642 172.013 30.9748 158.271 28.6324 146.148" stroke="#6588FC" stroke-width="0.75" stroke-miterlimit="10" stroke-linecap="round" stroke-linejoin="round"/>
<path d="M46.312 114.153C49.6282 108.526 49.963 107.734 54.343 97.636L50.8396 95.9681L44.8966 103.379C44.1814 102.201 39.6052 95.276 38.419 90.3952C36.655 83.1369 29.5336 81.7574 29.5336 81.7574C30.0724 84.7083 31.8256 87.9271 32.965 89.2418L32.9638 89.2412L32.0062 92.1039C33.7576 93.8288 39.9562 122.389 46.312 114.153Z" fill="white"/>
<path d="M50.8402 95.9681L44.8972 103.379C44.4388 102.624 42.7852 99.8335 40.7932 96.3207C37.5208 97.3889 36.8224 99.68 35.6914 102.197C38.4886 110.217 42.3694 119.261 46.3114 114.153C49.6276 108.526 49.7722 108.294 54.6988 96.4707L50.8402 95.9681Z" fill="#FCC6BA"/>
<path d="M36.6531 92.7852C36.6531 92.7852 32.0805 82.9893 32.3127 82.8472C32.3127 82.8472 31.0521 81.6525 22.9143 80.5195L22.3995 82.5839L17.4369 81.5115C17.4369 81.5115 10.4547 82.7176 6.77133 86.2844C6.77133 86.2844 6.32073 94.4309 7.16433 98.4601L7.63173 100.692C8.25153 103.65 14.3709 112.273 14.3709 112.273L11.5827 121.386C11.5827 121.386 29.1471 124.505 38.0277 120.624L33.8961 109.208L36.6531 92.7852Z" fill="white"/>
<path d="M14.371 112.273C14.371 112.273 8.00136 127.287 7.92876 134.948C7.85616 142.608 6.65076 165.341 6.65076 165.341C6.65076 165.341 25.3588 171.579 41.5378 163.274C41.5378 163.274 44.9734 126.712 33.3952 108.744L14.371 112.273Z" fill="white"/>
<path d="M26.9517 81.3496C26.4381 83.5261 25.5657 84.4887 25.5657 84.4887L23.5035 82.9461L24.8541 86.5975C24.8541 86.5975 29.3523 98.2669 30.0723 101.545C30.7929 104.823 40.2747 145.602 30.9753 166.979" stroke="#223242" stroke-width="0.75" stroke-miterlimit="10" stroke-linecap="round" stroke-linejoin="round"/>
<path d="M16.4734 79.5557L22.7164 83.1069L18.9058 86.294L14.371 83.0289C14.371 83.0289 14.2738 80.9213 16.4734 79.5557Z" fill="white"/>
<path d="M26.9349 81.1846C26.9349 81.1846 25.0708 79.3398 22.7734 79.197L22.4001 82.5839" fill="white"/>
<path d="M14.371 83.0289L18.9058 86.2934L21.8518 83.3048L26.5546 91.1071" stroke="#223242" stroke-width="0.75" stroke-miterlimit="10" stroke-linecap="round" stroke-linejoin="round"/>
<path d="M17.5024 210.723L9.65679 211.439C8.94879 211.504 8.32299 210.982 8.25819 210.275L8.03559 207.839C7.97079 207.131 8.49219 206.505 9.20019 206.44L17.0458 205.725C17.7538 205.66 18.3796 206.181 18.4438 206.889L18.6664 209.325C18.7312 210.033 18.2098 210.659 17.5024 210.723Z" fill="#223242"/>
<path d="M32.4987 209.422H24.6207C23.9103 209.422 23.3337 208.847 23.3337 208.136V205.69C23.3337 204.979 23.9097 204.403 24.6207 204.403H32.4987C33.2091 204.403 33.7857 204.979 33.7857 205.69V208.136C33.7857 208.847 33.2097 209.422 32.4987 209.422Z" fill="#223242"/>
<path d="M75.2906 64.2589L73.7138 63.009L59.1224 80.6077L61.4774 82.4736L75.2906 64.2589Z" fill="#BBC5D4"/>
<path d="M63.8362 80.9213L60.1396 77.9921C59.6032 77.5675 58.8244 77.6575 58.399 78.193L57.2338 79.6619L62.872 84.13L64.0372 82.6612C64.4626 82.1257 64.3726 81.3466 63.8362 80.9213Z" fill="#BBC5D4"/>
<path d="M63.0699 83.7354L61.4775 82.4735L59.1231 80.6077L57.8499 79.5989C57.3957 79.239 56.7357 79.3152 56.3763 79.7692L14.7591 132.242C13.6323 133.663 13.5291 135.566 14.3475 137.063C14.6205 137.563 14.9961 138.017 15.4701 138.393C15.8247 138.674 16.2087 138.891 16.6095 139.046C18.3519 139.721 20.4015 139.223 21.6237 137.682L63.2409 85.2096C63.6003 84.755 63.5241 84.0958 63.0699 83.7354Z" fill="#BBC5D4"/>
<path d="M59.878 81.7574L15.4696 138.393" stroke="#223242" stroke-width="0.75" stroke-miterlimit="10" stroke-linecap="round" stroke-linejoin="round"/>
<path d="M20.0367 138.904L13.9125 134.051L13.6119 134.43C12.8577 135.381 13.0173 136.764 13.9689 137.518L16.6473 139.64C17.5989 140.394 18.9819 140.234 19.7361 139.283L20.0367 138.904Z" fill="#BBC5D4"/>
<path d="M95.3499 61.4418C89.2683 69.1097 79.1559 71.2191 72.7641 66.1535C66.3717 61.0879 66.1203 50.7649 72.2019 43.097C78.2835 35.4291 88.3959 33.3198 94.7877 38.3853C101.18 43.4509 101.432 53.7739 95.3499 61.4418Z" fill="#909AB5"/>
<g opacity="0.5">
<path d="M93.355 59.8609C88.3216 66.2069 79.9528 67.9528 74.6626 63.7605C69.3724 59.5682 69.1636 51.0246 74.197 44.6786C79.2304 38.3325 87.5992 36.5867 92.8894 40.779C98.1796 44.9713 98.3878 53.5142 93.355 59.8609Z" fill="white"/>
</g>
<g opacity="0.5">
<path d="M93.3549 59.8609C98.3883 53.5148 98.1801 44.9713 92.8893 40.779C87.5991 36.5867 79.2297 38.3325 74.1969 44.6786C73.8339 45.1362 73.5063 45.607 73.1985 46.085C76.1541 45.2556 78.9579 45.1728 81.1899 46.638C86.7825 50.3079 84.5493 60.8559 85.6947 65.3295C88.5201 64.3884 91.2339 62.5352 93.3549 59.8609Z" fill="white"/>
</g>
<path d="M10.4974 116.865C10.5988 116.858 9.07477 115.12 7.62277 113.442C8.37457 109.577 13.6594 86.8074 6.77137 86.2844C6.77137 86.2844 0.695171 93.1288 0.00697064 110.519C-0.0110294 110.663 0.0147703 115.295 0.0159703 115.296C0.16297 116.919 9.91237 127.027 15.4534 130.27C16.5136 129.238 17.5402 128.173 18.577 127.117L10.4974 116.865Z" fill="white"/>
<path d="M18.5764 127.118L10.4974 116.866C10.5988 116.858 9.07476 115.121 7.62276 113.443C7.75176 112.779 8.01516 111.57 8.32656 110.031C4.27956 107.247 2.06016 106.93 0.247561 107.023C0.138961 108.137 0.0549603 109.298 0.00636028 110.52C-0.0116397 110.665 0.0141599 115.296 0.0153599 115.297C0.16236 116.921 9.91176 127.028 15.4528 130.271C16.5136 129.239 17.5402 128.173 18.5764 127.118Z" fill="#FCC6BA"/>
<path d="M17.4544 126.196C17.4544 126.196 20.629 123.09 21.1978 121.297C21.7666 119.504 22.9996 121.678 22.27 123.357C21.5404 125.036 20.9488 126.31 20.9488 126.31L24.0778 127.051C24.0778 127.051 25.9672 130.989 19.5154 132.567L14.6608 130.384C14.6608 130.384 15.346 127.11 17.4544 126.196Z" fill="#6588FC"/>
<path d="M23.4694 126.904C23.4694 126.904 27.7024 127.313 28.165 127.324C30.2866 127.373 30.5122 128.58 29.4628 128.543C27.8428 128.486 22.7056 128.642 22.7056 128.642L23.4694 126.904Z" fill="#6588FC"/>
<path d="M23.1226 130.324C23.1226 130.324 31.051 131.293 30.9748 130.815C30.898 130.336 29.5378 129.434 28.2412 129.307C26.2402 129.112 22.1776 128.426 22.1776 128.426L23.1226 130.324Z" fill="#6588FC"/>
<path d="M21.4186 131.911C21.4186 131.911 28.6504 133.269 28.6324 132.794C28.6144 132.319 27.4546 131.362 26.2684 131.171C24.4378 130.877 20.7532 129.994 20.7532 129.994L21.4186 131.911Z" fill="#6588FC"/>
<path d="M18.6394 132.049C18.6394 132.049 24.2494 135.313 24.3748 134.913C24.5002 134.513 23.8186 133.375 22.8892 132.866C21.4546 132.081 18.6526 130.26 18.6526 130.26L18.6394 132.049Z" fill="#6588FC"/>
<path d="M15.8758 130.931C15.8758 130.931 13.0102 129.911 11.854 129.338C10.5658 128.7 14.1826 123.506 16.1074 122.855C18.0322 122.204 16.7164 124.23 19.0342 125.043L15.8758 130.931Z" fill="#6588FC"/>
<path d="M21.6004 124.875C21.6004 124.875 20.7772 126.827 23.6854 127.034L19.4512 127.177L21.6004 124.875Z" fill="#6588FC"/>
<path d="M9.51514 104.491L11.5827 97.0176" stroke="#223242" stroke-width="0.75" stroke-miterlimit="10" stroke-linecap="round" stroke-linejoin="round"/>
<path d="M56.386 93.4887C56.386 93.4887 55.6978 94.2198 53.6518 94.3715C51.6052 94.5239 49.4686 95.2322 49.8298 95.9549C50.191 96.677 53.7502 96.4299 53.7502 96.4299C53.7502 96.4299 57.5398 95.5159 56.386 93.4887Z" fill="#6588FC"/>
<path d="M55.0083 95.6574C55.0083 95.6574 54.3201 96.3885 52.2741 96.5402C50.2281 96.6926 49.3143 97.4651 49.6755 98.1872C50.0367 98.9093 52.3725 98.5986 52.3725 98.5986C52.3725 98.5986 56.1621 97.6846 55.0083 95.6574Z" fill="#6588FC"/>
<path d="M53.4142 97.774C53.4142 97.774 52.9276 98.2903 51.4816 98.3983C50.035 98.5057 49.3894 99.052 49.6444 99.5624C49.8994 100.073 51.5506 99.8533 51.5506 99.8533C51.5506 99.8533 54.2302 99.2068 53.4142 97.774Z" fill="#6588FC"/>
<path d="M57.229 92.7222C57.229 92.7222 56.3236 93.1558 54.3598 92.5608C52.396 91.9659 51.2656 92.3569 51.3418 93.1606C51.418 93.9643 53.7094 94.5161 53.7094 94.5161C53.7094 94.5161 57.5746 95.0294 57.229 92.7222Z" fill="#6588FC"/>
<path d="M33.9759 105.805C33.9759 105.805 36.5415 103.141 36.5451 100.285C36.5487 97.636 33.7029 94.5395 33.7029 94.5395L33.3951 90.0695" fill="white"/>
<path d="M33.9759 105.805C33.9759 105.805 36.5415 103.141 36.5451 100.285C36.5487 97.636 33.7029 94.5395 33.7029 94.5395L33.3951 90.0695" stroke="#223242" stroke-width="0.75" stroke-miterlimit="10" stroke-linecap="round" stroke-linejoin="round"/>
<path d="M16.609 105.805C16.609 105.805 21.196 108.833 26.935 107.009L16.609 105.805Z" fill="white"/>
<path d="M16.609 105.805C16.609 105.805 21.196 108.833 26.935 107.009" stroke="#223242" stroke-width="0.75" stroke-miterlimit="10" stroke-linecap="round" stroke-linejoin="round"/>
<path d="M21.7408 96.2719L16.2128 97.698L16.7209 99.6661L22.2489 98.24L21.7408 96.2719Z" fill="#6588FC"/>
<path d="M14.7915 215.613C14.7915 215.613 16.5885 214.622 18.4473 215.613" stroke="white" stroke-width="0.75" stroke-miterlimit="10" stroke-linecap="round"/>
<path d="M15.7432 216.672C15.7432 216.672 17.5402 215.681 19.399 216.672" stroke="white" stroke-width="0.75" stroke-miterlimit="10" stroke-linecap="round"/>
<path d="M33.6526 213.994C33.6526 213.994 34.7272 213.402 36.0736 213.591" stroke="white" stroke-width="0.75" stroke-miterlimit="10" stroke-linecap="round"/>
<path d="M31.6467 213.359C31.6467 213.359 32.7213 212.767 34.0677 212.956" stroke="white" stroke-width="0.75" stroke-miterlimit="10" stroke-linecap="round"/>
<path opacity="0.52" d="M195.549 225C211.735 225 224.856 224.144 224.856 223.087C224.856 222.031 211.735 221.175 195.549 221.175C179.363 221.175 166.242 222.031 166.242 223.087C166.242 224.144 179.363 225 195.549 225Z" fill="#BBC5D4"/>
<path d="M219.094 223.087H172.003C170.304 223.087 168.928 221.711 168.928 220.013V153.285C168.928 151.587 170.305 150.211 172.003 150.211H219.094C220.793 150.211 222.169 151.587 222.169 153.285V220.013C222.17 221.711 220.793 223.087 219.094 223.087Z" fill="#3F977E"/>
<path d="M216.694 150.211H174.404V217.537H216.694V150.211Z" fill="white"/>
<path d="M204.955 146.837H202.373C201.902 146.837 201.483 146.5 201.42 146.033C201.028 143.142 198.549 140.913 195.548 140.913C192.548 140.913 190.068 143.142 189.676 146.033C189.613 146.5 189.195 146.837 188.724 146.837H186.141C185.622 146.837 185.201 147.258 185.201 147.778V153.231C185.201 153.751 185.622 154.172 186.141 154.172H204.955C205.475 154.172 205.896 153.751 205.896 153.231V147.778C205.896 147.258 205.475 146.837 204.955 146.837ZM195.549 149.282C194.198 149.282 193.103 148.187 193.103 146.837C193.103 145.487 194.198 144.393 195.549 144.393C196.899 144.393 197.994 145.487 197.994 146.837C197.994 148.187 196.899 149.282 195.549 149.282Z" fill="#909AB5"/>
<path d="M209.298 162.175C208.91 161.454 208.235 161.138 207.579 160.975C206.985 160.828 206.39 160.972 205.863 161.337C205.503 161.588 205.101 161.715 204.698 161.72C204.663 161.719 204.524 161.719 204.489 161.72C204.087 161.715 203.685 161.588 203.324 161.337C202.797 160.972 202.202 160.828 201.608 160.975C200.952 161.138 200.277 161.454 199.889 162.175C199.206 163.443 199.345 165.319 200.024 166.537C200.167 166.793 200.186 167.127 200.168 167.439C200.144 167.89 200.136 168.313 200.151 168.764C200.169 169.32 200.211 169.878 200.3 170.424C200.451 171.362 200.749 172.3 201.33 172.952C201.474 173.114 201.634 173.256 201.804 173.375C202.28 173.707 202.803 173.396 203.022 172.803C203.161 172.428 203.184 172.004 203.214 171.592C203.279 170.684 203.531 169.835 204.353 169.727C204.398 169.721 204.444 169.719 204.489 169.72C204.524 169.719 204.559 169.722 204.594 169.725C204.629 169.722 204.663 169.719 204.698 169.72C204.744 169.719 204.789 169.721 204.835 169.727C205.656 169.835 205.909 170.684 205.974 171.592C206.003 172.004 206.027 172.428 206.165 172.803C206.384 173.397 206.908 173.707 207.384 173.375C207.554 173.256 207.713 173.114 207.858 172.952C208.439 172.3 208.737 171.362 208.888 170.424C208.976 169.878 209.019 169.32 209.037 168.764C209.051 168.313 209.045 167.89 209.019 167.439C209.002 167.127 209.021 166.793 209.163 166.537C209.842 165.319 209.982 163.443 209.298 162.175Z" fill="#80BA91"/>
<path d="M201.956 171.695C201.77 171.316 201.627 170.828 201.534 170.252C201.461 169.804 201.417 169.305 201.399 168.73C201.386 168.324 201.391 167.933 201.415 167.499C201.437 167.113 201.431 166.537 201.132 166.002C200.597 165.042 200.54 163.56 201.005 162.697C201.118 162.486 201.317 162.25 201.929 162.099C201.978 162.087 202.025 162.081 202.073 162.081C202.266 162.081 202.454 162.183 202.578 162.27C203.145 162.663 203.801 162.875 204.475 162.882H204.687C205.387 162.875 206.043 162.664 206.61 162.27C206.734 162.184 206.922 162.081 207.115 162.081C207.162 162.081 207.209 162.086 207.258 162.099C207.87 162.25 208.068 162.486 208.182 162.697C208.647 163.559 208.59 165.042 208.055 166.002C207.758 166.536 207.751 167.112 207.772 167.498C207.796 167.932 207.801 168.323 207.788 168.73C207.77 169.305 207.725 169.803 207.653 170.252C207.56 170.828 207.417 171.316 207.231 171.695C207.228 171.658 207.219 171.515 207.219 171.515C207.061 169.306 205.931 168.697 205.01 168.576C204.912 168.563 204.816 168.557 204.721 168.557C204.674 168.557 204.633 168.558 204.597 168.559C204.565 168.558 204.498 168.557 204.497 168.557C204.369 168.557 204.275 168.563 204.18 168.575C203.257 168.697 202.127 169.306 201.969 171.515C201.969 171.515 201.959 171.658 201.956 171.695Z" fill="white"/>
<path d="M203.432 165.569L204.495 166.674L205.922 164.884" stroke="#80BA91" stroke-miterlimit="10" stroke-linecap="round" stroke-linejoin="round"/>
<path d="M194.477 178.055H181.037C180.699 178.055 180.426 177.781 180.426 177.444C180.426 177.106 180.699 176.832 181.037 176.832H194.477C194.814 176.832 195.088 177.106 195.088 177.444C195.088 177.781 194.814 178.055 194.477 178.055Z" fill="#80BA91"/>
<path d="M210.06 181.981H181.037C180.699 181.981 180.426 181.707 180.426 181.37C180.426 181.032 180.699 180.758 181.037 180.758H210.06C210.398 180.758 210.672 181.032 210.672 181.37C210.672 181.707 210.398 181.981 210.06 181.981Z" fill="#80BA91"/>
<path d="M210.06 186.154H181.037C180.699 186.154 180.426 185.88 180.426 185.542C180.426 185.204 180.699 184.931 181.037 184.931H210.06C210.398 184.931 210.672 185.204 210.672 185.542C210.672 185.88 210.398 186.154 210.06 186.154Z" fill="#80BA91"/>
<path d="M210.06 190.326H181.037C180.699 190.326 180.426 190.052 180.426 189.715C180.426 189.377 180.699 189.103 181.037 189.103H210.06C210.398 189.103 210.672 189.377 210.672 189.715C210.672 190.052 210.398 190.326 210.06 190.326Z" fill="#80BA91"/>
<path d="M210.06 194.499H181.037C180.699 194.499 180.426 194.225 180.426 193.887C180.426 193.549 180.699 193.276 181.037 193.276H210.06C210.398 193.276 210.672 193.549 210.672 193.887C210.672 194.225 210.398 194.499 210.06 194.499Z" fill="#80BA91"/>
<path d="M210.06 198.671H181.037C180.699 198.671 180.426 198.398 180.426 198.06C180.426 197.722 180.699 197.448 181.037 197.448H210.06C210.398 197.448 210.672 197.722 210.672 198.06C210.672 198.398 210.398 198.671 210.06 198.671Z" fill="#80BA91"/>
<path d="M210.06 203.326H181.037C180.699 203.326 180.426 203.052 180.426 202.714C180.426 202.377 180.699 202.103 181.037 202.103H210.06C210.398 202.103 210.672 202.377 210.672 202.714C210.672 203.052 210.398 203.326 210.06 203.326Z" fill="#80BA91"/>
<path d="M210.06 207.498H181.037C180.699 207.498 180.426 207.225 180.426 206.887C180.426 206.549 180.699 206.276 181.037 206.276H210.06C210.398 206.276 210.672 206.549 210.672 206.887C210.672 207.225 210.398 207.498 210.06 207.498Z" fill="#80BA91"/>
<path d="M216.693 217.537H174.404V219.101L195.549 218.319L216.693 219.101V217.537Z" fill="#223242"/>
<path d="M126.159 8.44423L127.698 12.9484C127.723 13.0198 127.773 13.0792 127.84 13.1151L132.525 14.6403C132.788 14.7261 132.788 15.0985 132.524 15.1837L127.864 16.6849C127.799 16.7215 127.749 16.7809 127.725 16.8522L126.223 21.3798C126.133 21.6515 125.748 21.6533 125.656 21.3822L124.116 16.878C124.092 16.8067 124.041 16.7473 123.975 16.7113L119.444 15.2347C119.139 15.1351 119.136 14.7051 119.442 14.6067C121.023 14.0999 123.951 13.1415 123.951 13.1415C124.016 13.1049 124.066 13.0456 124.089 12.9742L125.592 8.44663C125.682 8.17494 126.066 8.17314 126.159 8.44423Z" fill="white"/>
<path d="M137.034 0.10938L137.868 2.5516C137.882 2.59058 137.909 2.62237 137.945 2.64216L140.485 3.46923C140.628 3.51541 140.627 3.71753 140.484 3.76371L137.958 4.57758C137.922 4.59737 137.895 4.62976 137.883 4.66814L137.069 7.12295C137.02 7.27049 136.811 7.27109 136.761 7.12415L135.927 4.68193C135.914 4.64295 135.886 4.61117 135.85 4.59138L133.394 3.79069C133.229 3.73672 133.227 3.50341 133.392 3.45064C134.25 3.17595 135.837 2.65595 135.837 2.65595C135.872 2.63616 135.899 2.60377 135.912 2.56539L136.726 0.110583C136.775 -0.0363573 136.983 -0.036961 137.034 0.10938Z" fill="white"/>
<path d="M213.57 45.1446L214.404 47.5868C214.417 47.6252 214.445 47.6576 214.481 47.6774L217.021 48.5045C217.164 48.5506 217.163 48.7528 217.02 48.7989L214.494 49.6128C214.458 49.6326 214.431 49.665 214.419 49.7034L213.604 52.1582C213.556 52.3057 213.347 52.3063 213.297 52.1594L212.463 49.7172C212.449 49.6782 212.422 49.6464 212.386 49.6266L209.929 48.8259C209.764 48.7719 209.763 48.5386 209.928 48.4859C210.786 48.2112 212.373 47.6912 212.373 47.6912C212.408 47.6714 212.435 47.639 212.448 47.6006L213.262 45.1458C213.311 44.9989 213.519 44.9977 213.57 45.1446Z" fill="white"/>
</svg>
